<svg xmlns="http://www.w3.org/2000/svg" version="1.1" xmlns:xlink="http://www.w3.org/1999/xlink" xmlns:svgjs="http://svgjs.com/svgjs" width="1440" height="560" preserveAspectRatio="none" viewBox="0 0 1440 560"><g mask="url(&quot;#SvgjsMask1000&quot;)" fill="none"><rect width="1440" height="560" x="0" y="0" fill="#0e2a47"></rect><path d="M 0,153 C 57.6,134.4 172.8,62.4 288,60 C 403.2,57.6 460.8,152.2 576,141 C 691.2,129.8 748.8,1 864,4 C 979.2,7 1036.8,131.8 1152,156 C 1267.2,180.2 1382.4,131.2 1440,125L1440 560L0 560z" fill="#184a7e"></path><path d="M 0,283 C 96,324.6 288,467.4 480,491 C 672,514.6 768,414 960,401 C 1152,388 1344,421 1440,426L1440 560L0 560z" fill="#2264ab"></path></g><defs><mask id="SvgjsMask1000"><rect width="1440" height="560" fill="#ffffff"></rect></mask></defs></svg>